<?xml version="1.0" encoding="UTF-8" standalone="no"?>
<svg xmlns="http://www.w3.org/2000/svg" xmlns:xlink="http://www.w3.org/1999/xlink" style="isolation:isolate" viewBox="0 0 233.333 125" width="233.333pt" height="125pt">
<path d=" M 129.484 74.515 L 142.451 74.515 C 146.994 74.515 149.415 71.63 149.415 68.048 C 149.415 65.031 147.359 62.576 144.838 62.179 C 147.093 61.714 148.95 59.691 148.95 56.707 C 148.95 53.523 146.629 50.605 142.053 50.605 L 129.451 50.605 L 129.451 74.515 L 129.484 74.515 Z  M 134.591 60.222 L 134.591 54.949 L 140.958 54.949 C 142.683 54.949 143.744 56.11 143.744 57.569 C 143.744 59.095 142.683 60.222 140.958 60.222 L 134.591 60.222 Z  M 134.591 70.171 L 134.591 64.533 L 141.157 64.533 C 143.18 64.533 144.241 65.826 144.241 67.319 C 144.241 69.043 143.081 70.137 141.157 70.137 L 134.591 70.137 L 134.591 70.171 Z " fill="#485776"/>
<path d=" M 187.893 55.214 L 187.893 59.966 L 199.886 59.966 L 199.886 64.6 L 187.893 64.6 L 187.893 69.88 L 201.18 69.88 L 201.18 74.515 L 182.778 74.515 L 182.778 50.638 L 201.18 50.638 L 201.18 55.214 L 187.893 55.214 Z " fill="#485776"/>
<path d=" M 162.697 55.214 L 162.697 59.966 L 174.691 59.966 L 174.691 64.6 L 162.697 64.6 L 162.697 69.88 L 175.984 69.88 L 175.984 74.515 L 157.582 74.515 L 157.582 50.638 L 175.984 50.638 L 175.984 55.214 L 162.697 55.214 Z " fill="#485776"/>
<path d=" M 76.336 46.862 C 76.336 45.051 74.728 43.591 73.055 42.563 C 73.353 42.185 73.671 41.835 74.01 41.527 C 75.059 40.614 76.336 40.158 77.659 39.794 C 77.75 39.794 77.841 39.748 77.933 39.702 C 78.48 39.383 78.662 38.653 78.343 38.106 C 78.024 37.559 77.294 37.376 76.747 37.696 C 76.017 38.06 75.379 38.516 74.74 39.018 C 74.102 39.52 73.554 40.113 73.098 40.797 C 72.827 41.249 72.576 41.701 72.371 42.166 C 71.88 41.898 71.402 41.668 70.977 41.479 C 69.947 41.02 68.779 41.043 67.761 41.528 C 67.279 41.758 66.729 42.042 66.169 42.372 C 65.96 41.821 65.692 41.283 65.346 40.797 C 64.889 40.113 64.342 39.52 63.704 39.018 C 63.065 38.516 62.381 38.106 61.697 37.696 C 61.651 37.673 61.606 37.661 61.56 37.65 C 61.515 37.639 61.469 37.627 61.423 37.604 C 60.785 37.422 60.192 37.787 60.01 38.425 C 59.827 39.064 60.192 39.657 60.83 39.839 C 62.153 40.204 63.43 40.66 64.479 41.572 C 64.862 41.92 65.219 42.322 65.549 42.757 C 63.938 43.806 62.427 45.227 62.427 46.862 C 62.427 48.793 63.457 50.515 65.055 51.635 C 64.306 52.062 63.633 52.602 63.055 53.233 C 63.014 53.221 62.971 53.211 62.928 53.201 C 54.993 51.423 43.364 49.325 36.477 48.23 C 34.014 47.866 32.555 49.325 32.236 50.921 C 31.871 52.745 32.737 55.071 34.562 57.215 C 36.523 59.449 39.259 61.137 42.269 61.866 C 42.781 62.001 43.314 62.112 43.861 62.202 C 43.764 62.57 43.72 62.948 43.728 63.326 C 43.774 66.655 47.149 68.935 50.113 68.935 C 55.043 68.935 59.037 65.865 61.604 63.19 C 61.915 63.873 62.309 64.502 62.773 65.066 C 61.483 67.12 60.785 69.814 60.785 72.857 C 60.785 79.379 64.068 88.5 69.404 88.5 C 74.74 88.5 78.024 79.379 77.932 72.857 C 77.932 69.839 77.249 67.177 75.978 65.135 C 76.443 64.583 76.839 63.967 77.155 63.298 C 79.724 65.962 83.684 68.935 88.559 68.935 C 91.523 68.935 94.898 66.61 94.943 63.326 C 94.943 62.95 94.894 62.574 94.792 62.207 C 95.358 62.117 95.912 62.004 96.448 61.867 C 99.458 61.137 102.195 59.45 104.156 57.215 C 105.98 55.117 106.846 52.746 106.482 50.921 C 106.162 49.28 104.703 47.82 102.24 48.231 C 95.354 49.325 83.77 51.423 75.789 53.202 C 75.771 53.205 75.753 53.21 75.735 53.214 C 75.158 52.587 74.487 52.052 73.74 51.627 C 75.34 50.499 76.363 48.771 76.336 46.862 Z  M 73.132 67.311 C 72.017 67.829 70.757 68.114 69.404 68.114 C 68.015 68.114 66.723 67.813 65.585 67.268 C 64.855 68.559 64.434 70.259 64.356 72.186 L 64.525 72.287 C 65.036 72.593 65.536 72.892 66.075 73.131 C 66.531 73.399 67.003 73.62 67.49 73.803 C 67.763 73.905 67.75 74.311 67.462 74.358 C 66.903 74.449 66.338 74.499 65.756 74.499 C 65.307 74.521 64.857 74.512 64.413 74.497 C 64.542 76.024 64.841 77.523 65.247 78.888 C 65.568 79.079 65.885 79.261 66.212 79.425 C 66.649 79.671 67.103 79.884 67.574 80.064 C 67.841 80.167 67.829 80.556 67.548 80.607 C 67.015 80.703 66.468 80.765 65.938 80.793 L 65.917 80.794 C 66.93 83.258 68.257 84.943 69.359 84.943 C 70.455 84.943 71.776 83.273 72.788 80.825 C 72.279 80.772 71.785 80.703 71.306 80.612 C 71.025 80.558 71.014 80.167 71.282 80.067 C 71.752 79.891 72.205 79.689 72.642 79.47 C 72.907 79.338 73.165 79.194 73.424 79.042 C 73.853 77.638 74.17 76.085 74.304 74.501 C 73.905 74.513 73.502 74.518 73.098 74.499 C 72.523 74.499 71.947 74.45 71.392 74.361 C 71.104 74.315 71.094 73.915 71.369 73.817 C 71.877 73.637 72.359 73.423 72.825 73.177 C 73.32 72.915 73.814 72.634 74.321 72.347 L 74.366 72.321 C 74.301 70.36 73.873 68.642 73.132 67.311 Z  M 70.219 44.676 C 69.694 44.477 69.118 44.488 68.599 44.703 C 67.588 45.122 65.984 45.926 65.984 46.817 C 65.984 48.117 67.534 49.37 69.404 49.37 C 71.229 49.37 72.825 48.347 72.825 46.817 C 72.851 45.834 71.239 45.064 70.219 44.676 Z  M 69.404 54.114 C 66.44 54.114 64.388 56.257 64.388 59.313 C 64.388 62.368 66.44 64.512 69.404 64.512 C 72.369 64.512 74.421 62.368 74.421 59.313 C 74.421 56.257 72.369 54.114 69.404 54.114 Z  M 95.491 58.036 C 90.018 59.358 81.855 57.671 78.024 56.759 C 85.503 55.163 96.038 53.247 102.605 52.198 C 102.24 53.658 99.96 56.941 95.491 58.036 Z  M 81.353 61.821 C 83.268 63.463 85.777 64.968 88.559 64.968 C 89.608 64.968 90.337 64.42 90.702 63.919 C 90.976 63.554 90.976 63.28 90.976 63.189 C 90.93 63.143 90.611 62.915 89.744 62.87 C 87.145 62.824 84.409 62.459 81.353 61.821 Z  M 36.067 52.198 C 36.386 53.657 38.666 56.941 43.181 58.036 C 48.608 59.358 56.817 57.671 60.648 56.759 C 53.169 55.162 42.634 53.247 36.067 52.198 Z  M 48.927 62.87 C 51.527 62.779 54.263 62.459 57.319 61.821 C 55.403 63.508 52.895 64.968 50.113 64.968 C 49.11 64.968 48.335 64.42 47.97 63.919 C 47.696 63.508 47.696 63.235 47.696 63.189 C 47.742 63.098 48.061 62.915 48.927 62.87 Z " fill-rule="evenodd" fill="#485776"/>
<path d=" M 85.149 30.579 C 80.206 28.121 74.759 26.844 69.238 26.85 C 63.718 26.856 58.274 28.144 53.336 30.612 C 48.398 33.081 44.1 36.662 40.782 41.075 C 40.031 42.073 40.232 43.492 41.231 44.243 C 42.23 44.994 43.648 44.793 44.399 43.794 C 47.296 39.942 51.048 36.815 55.359 34.66 C 59.67 32.505 64.423 31.38 69.243 31.375 C 74.063 31.37 78.818 32.485 83.134 34.631 C 87.449 36.777 91.208 39.896 94.113 43.742 C 94.866 44.739 96.285 44.937 97.282 44.184 C 98.279 43.431 98.477 42.012 97.724 41.014 C 94.397 36.609 90.092 33.037 85.149 30.579 Z  M 104.49 68.057 C 104.685 66.823 103.842 65.664 102.608 65.469 C 101.373 65.275 100.215 66.117 100.02 67.351 C 98.866 74.664 95.143 81.326 89.52 86.142 C 83.896 90.957 76.741 93.61 69.337 93.624 C 61.934 93.639 54.768 91.014 49.126 86.222 C 43.483 81.428 39.734 74.781 38.551 67.473 C 38.351 66.239 37.19 65.401 35.956 65.601 C 34.722 65.801 33.884 66.963 34.084 68.196 C 35.439 76.567 39.733 84.181 46.196 89.67 C 52.659 95.16 60.867 98.167 69.346 98.15 C 77.826 98.133 86.022 95.094 92.463 89.579 C 98.904 84.064 103.168 76.433 104.49 68.057 Z " fill-rule="evenodd" fill="#C3D0E4"/>
</svg>