<?xml version="1.0" encoding="UTF-8" standalone="no"?>
<svg xmlns="http://www.w3.org/2000/svg" xmlns:xlink="http://www.w3.org/1999/xlink" style="isolation:isolate" viewBox="0 0 36 36" width="36pt" height="36pt">
<path d=" M 21.376 10.682 C 21.376 9.806 20.598 9.1 19.788 8.602 C 19.932 8.419 20.086 8.25 20.251 8.101 C 20.758 7.659 21.376 7.439 22.016 7.262 C 22.06 7.262 22.104 7.24 22.148 7.218 C 22.413 7.064 22.501 6.711 22.347 6.446 C 22.192 6.181 21.839 6.093 21.574 6.247 C 21.221 6.424 20.912 6.644 20.604 6.887 C 20.295 7.13 20.03 7.417 19.809 7.748 C 19.678 7.966 19.556 8.185 19.457 8.41 C 19.22 8.28 18.989 8.169 18.783 8.077 C 18.285 7.856 17.719 7.866 17.227 8.101 C 16.994 8.213 16.728 8.35 16.457 8.51 C 16.356 8.243 16.226 7.983 16.058 7.748 C 15.838 7.417 15.573 7.13 15.264 6.887 C 14.955 6.644 14.624 6.446 14.293 6.247 C 14.271 6.236 14.249 6.231 14.227 6.225 C 14.205 6.22 14.183 6.214 14.161 6.203 C 13.852 6.115 13.565 6.291 13.477 6.6 C 13.389 6.909 13.565 7.196 13.874 7.284 C 14.514 7.461 15.132 7.681 15.639 8.123 C 15.825 8.291 15.997 8.486 16.157 8.696 C 15.377 9.204 14.646 9.891 14.646 10.682 C 14.646 11.616 15.145 12.449 15.918 12.991 C 15.555 13.198 15.23 13.459 14.95 13.764 C 14.93 13.759 14.91 13.754 14.889 13.749 C 11.05 12.888 5.423 11.874 2.092 11.344 C 0.9 11.167 0.194 11.874 0.04 12.646 C -0.137 13.528 0.282 14.654 1.165 15.691 C 2.114 16.772 3.438 17.588 4.894 17.941 C 5.142 18.006 5.399 18.06 5.664 18.103 C 5.617 18.282 5.596 18.465 5.6 18.647 C 5.622 20.258 7.255 21.361 8.689 21.361 C 11.074 21.361 13.006 19.876 14.248 18.582 C 14.399 18.912 14.589 19.216 14.814 19.489 C 14.19 20.483 13.852 21.786 13.852 23.259 C 13.852 26.414 15.441 30.827 18.022 30.827 C 20.604 30.827 22.192 26.414 22.148 23.259 C 22.148 21.798 21.817 20.51 21.202 19.523 C 21.427 19.255 21.619 18.957 21.772 18.634 C 23.015 19.923 24.931 21.361 27.289 21.361 C 28.723 21.361 30.356 20.236 30.378 18.647 C 30.378 18.466 30.354 18.283 30.305 18.106 C 30.579 18.062 30.846 18.008 31.106 17.941 C 32.562 17.588 33.886 16.772 34.835 15.691 C 35.718 14.676 36.137 13.528 35.96 12.646 C 35.806 11.852 35.1 11.145 33.908 11.344 C 30.577 11.874 24.972 12.889 21.111 13.749 C 21.102 13.751 21.094 13.753 21.085 13.755 C 20.806 13.452 20.481 13.193 20.12 12.987 C 20.894 12.442 21.388 11.605 21.376 10.682 Z  M 19.826 20.575 C 19.286 20.826 18.676 20.964 18.022 20.964 C 17.35 20.964 16.725 20.818 16.174 20.555 C 15.821 21.179 15.618 22.002 15.579 22.934 L 15.661 22.983 C 15.909 23.131 16.151 23.275 16.411 23.391 C 16.632 23.521 16.86 23.628 17.096 23.716 C 17.228 23.766 17.222 23.962 17.082 23.985 C 16.812 24.029 16.539 24.053 16.257 24.053 C 16.04 24.063 15.822 24.059 15.607 24.052 C 15.67 24.791 15.814 25.516 16.011 26.176 C 16.166 26.269 16.319 26.357 16.478 26.436 C 16.689 26.555 16.909 26.658 17.136 26.745 C 17.266 26.795 17.26 26.983 17.124 27.008 C 16.866 27.054 16.601 27.084 16.345 27.098 L 16.335 27.098 C 16.825 28.291 17.467 29.106 18 29.106 C 18.531 29.106 19.17 28.298 19.659 27.114 C 19.413 27.088 19.174 27.055 18.942 27.01 C 18.806 26.984 18.801 26.795 18.93 26.747 C 19.158 26.662 19.377 26.564 19.589 26.458 C 19.717 26.394 19.842 26.324 19.967 26.251 C 20.174 25.572 20.328 24.82 20.393 24.054 C 20.199 24.06 20.004 24.062 19.809 24.053 C 19.531 24.053 19.252 24.029 18.984 23.986 C 18.844 23.964 18.84 23.77 18.973 23.723 C 19.218 23.636 19.452 23.532 19.677 23.413 C 19.916 23.286 20.156 23.151 20.401 23.012 L 20.423 22.999 C 20.391 22.051 20.184 21.219 19.826 20.575 Z  M 18.416 9.624 C 18.162 9.528 17.883 9.534 17.633 9.637 C 17.143 9.84 16.367 10.229 16.367 10.66 C 16.367 11.289 17.117 11.896 18.022 11.896 C 18.905 11.896 19.677 11.401 19.677 10.66 C 19.69 10.185 18.91 9.812 18.416 9.624 Z  M 18.022 14.19 C 16.588 14.19 15.595 15.227 15.595 16.706 C 15.595 18.184 16.588 19.221 18.022 19.221 C 19.456 19.221 20.449 18.184 20.449 16.706 C 20.449 15.227 19.456 14.19 18.022 14.19 Z  M 30.643 16.088 C 27.995 16.728 24.046 15.911 22.192 15.47 C 25.811 14.698 30.908 13.771 34.085 13.264 C 33.908 13.97 32.805 15.558 30.643 16.088 Z  M 23.803 17.919 C 24.73 18.714 25.943 19.442 27.289 19.442 C 27.797 19.442 28.15 19.177 28.326 18.934 C 28.458 18.758 28.458 18.625 28.458 18.581 C 28.436 18.559 28.282 18.449 27.863 18.427 C 26.605 18.405 25.281 18.228 23.803 17.919 Z  M 1.893 13.264 C 2.048 13.97 3.151 15.558 5.335 16.088 C 7.961 16.728 11.932 15.911 13.786 15.47 C 10.167 14.698 5.07 13.771 1.893 13.264 Z  M 8.115 18.427 C 9.373 18.382 10.697 18.228 12.175 17.919 C 11.248 18.736 10.035 19.442 8.689 19.442 C 8.203 19.442 7.828 19.177 7.652 18.934 C 7.519 18.736 7.519 18.603 7.519 18.581 C 7.542 18.537 7.696 18.449 8.115 18.427 Z " fill-rule="evenodd" fill="#485776"/>
<path d=" M 25.639 2.804 C 23.248 1.615 20.613 0.997 17.942 1 C 15.271 1.003 12.637 1.626 10.248 2.82 C 7.859 4.014 5.78 5.747 4.175 7.882 C 3.811 8.365 3.908 9.051 4.392 9.415 C 4.875 9.778 5.561 9.681 5.925 9.198 C 7.326 7.334 9.141 5.821 11.227 4.779 C 13.313 3.736 15.612 3.192 17.944 3.189 C 20.276 3.187 22.576 3.726 24.664 4.764 C 26.752 5.803 28.571 7.312 29.976 9.172 C 30.341 9.655 31.027 9.751 31.51 9.386 C 31.992 9.022 32.088 8.335 31.723 7.853 C 30.114 5.722 28.031 3.993 25.639 2.804 Z  M 34.997 20.936 C 35.091 20.339 34.683 19.778 34.086 19.684 C 33.489 19.59 32.928 19.998 32.834 20.595 C 32.276 24.133 30.475 27.356 27.754 29.686 C 25.033 32.015 21.571 33.299 17.99 33.306 C 14.408 33.313 10.941 32.043 8.211 29.724 C 5.481 27.405 3.667 24.189 3.095 20.654 C 2.998 20.057 2.436 19.651 1.84 19.748 C 1.243 19.845 0.837 20.407 0.934 21.003 C 1.589 25.053 3.667 28.737 6.794 31.393 C 9.92 34.049 13.891 35.504 17.994 35.495 C 22.097 35.487 26.062 34.017 29.178 31.349 C 32.294 28.68 34.357 24.989 34.997 20.936 Z " fill-rule="evenodd" fill="#C3D0E4"/>
</svg>