<?xml version="1.0" encoding="UTF-8" standalone="no"?><!-- Generator: Gravit.io --><svg xmlns="http://www.w3.org/2000/svg" xmlns:xlink="http://www.w3.org/1999/xlink" style="isolation:isolate" viewBox="0 0 130.452 125" width="130.452" height="125"><defs><clipPath id="_clipPath_B89pRYqeNljyjoWv1Tg6rPHBr1zDgYCx"><rect width="130.452" height="125"/></clipPath></defs><g clip-path="url(#_clipPath_B89pRYqeNljyjoWv1Tg6rPHBr1zDgYCx)"><path d=" M 77.459 35.085 C 77.459 31.909 74.639 29.35 71.706 27.547 C 72.228 26.885 72.787 26.271 73.381 25.73 C 75.22 24.131 77.459 23.332 79.777 22.692 C 79.937 22.692 80.098 22.612 80.257 22.532 C 81.217 21.972 81.536 20.693 80.977 19.734 C 80.417 18.774 79.138 18.454 78.178 19.014 C 76.899 19.654 75.78 20.453 74.66 21.333 C 73.541 22.212 72.582 23.252 71.782 24.451 C 71.306 25.244 70.866 26.036 70.506 26.852 C 69.646 26.381 68.808 25.978 68.063 25.646 C 66.257 24.843 64.209 24.882 62.425 25.733 C 61.581 26.136 60.616 26.633 59.634 27.213 C 59.268 26.247 58.798 25.303 58.19 24.451 C 57.391 23.252 56.431 22.212 55.312 21.333 C 54.192 20.453 52.993 19.734 51.794 19.014 C 51.714 18.974 51.634 18.954 51.554 18.934 C 51.474 18.914 51.394 18.894 51.314 18.854 C 50.195 18.534 49.155 19.174 48.835 20.293 C 48.516 21.413 49.155 22.452 50.275 22.772 C 52.593 23.412 54.832 24.211 56.671 25.81 C 57.343 26.421 57.968 27.125 58.546 27.887 C 55.722 29.727 53.073 32.218 53.073 35.085 C 53.073 38.47 54.879 41.488 57.681 43.452 C 56.367 44.201 55.188 45.147 54.175 46.254 C 54.102 46.233 54.028 46.215 53.952 46.198 C 40.04 43.08 19.652 39.402 7.579 37.483 C 3.262 36.844 0.703 39.402 0.144 42.2 C -0.496 45.399 1.023 49.476 4.221 53.234 C 7.659 57.152 12.457 60.11 17.734 61.389 C 18.632 61.626 19.565 61.82 20.525 61.977 C 20.354 62.623 20.278 63.286 20.292 63.948 C 20.372 69.784 26.289 73.782 31.486 73.782 C 40.128 73.782 47.131 68.4 51.631 63.71 C 52.176 64.906 52.866 66.009 53.68 66.999 C 51.418 70.6 50.195 75.323 50.195 80.658 C 50.195 92.092 55.951 108.082 65.306 108.082 C 74.66 108.082 80.417 92.092 80.257 80.658 C 80.257 75.366 79.059 70.699 76.831 67.12 C 77.646 66.152 78.339 65.071 78.894 63.899 C 83.398 68.57 90.341 73.782 98.886 73.782 C 104.083 73.782 110 69.705 110.08 63.948 C 110.08 63.29 109.993 62.629 109.815 61.987 C 110.807 61.828 111.777 61.631 112.718 61.39 C 117.995 60.11 122.793 57.152 126.231 53.234 C 129.429 49.556 130.948 45.399 130.308 42.2 C 129.749 39.322 127.19 36.764 122.872 37.483 C 110.799 39.402 90.491 43.08 76.5 46.198 C 76.468 46.205 76.436 46.213 76.405 46.22 C 75.393 45.121 74.217 44.183 72.907 43.438 C 75.711 41.461 77.505 38.431 77.459 35.085 Z  M 71.842 70.934 C 69.886 71.842 67.677 72.343 65.306 72.343 C 62.87 72.343 60.605 71.815 58.61 70.859 C 57.33 73.123 56.593 76.103 56.455 79.482 L 56.751 79.658 C 57.648 80.195 58.525 80.718 59.469 81.138 C 60.269 81.608 61.095 81.995 61.95 82.315 C 62.429 82.495 62.405 83.206 61.9 83.289 C 60.921 83.448 59.93 83.537 58.909 83.537 C 58.122 83.574 57.334 83.559 56.555 83.532 C 56.781 86.21 57.306 88.838 58.017 91.23 C 58.579 91.566 59.136 91.885 59.709 92.171 C 60.476 92.603 61.272 92.977 62.096 93.293 C 62.565 93.473 62.544 94.155 62.051 94.244 C 61.117 94.413 60.158 94.521 59.23 94.57 L 59.192 94.572 C 60.967 98.893 63.295 101.846 65.226 101.846 C 67.149 101.846 69.465 98.918 71.237 94.627 C 70.346 94.533 69.48 94.413 68.639 94.253 C 68.147 94.159 68.128 93.474 68.597 93.298 C 69.421 92.989 70.216 92.635 70.983 92.251 C 71.446 92.02 71.899 91.767 72.353 91.501 C 73.105 89.039 73.661 86.317 73.896 83.54 C 73.196 83.561 72.489 83.57 71.782 83.537 C 70.773 83.537 69.765 83.45 68.791 83.294 C 68.285 83.213 68.268 82.513 68.75 82.341 C 69.641 82.024 70.486 81.65 71.302 81.218 C 72.17 80.758 73.037 80.267 73.925 79.763 L 74.005 79.718 C 73.89 76.281 73.14 73.267 71.842 70.934 Z  M 66.734 31.252 C 65.814 30.902 64.803 30.923 63.895 31.299 C 62.122 32.033 59.309 33.444 59.309 35.005 C 59.309 37.284 62.028 39.482 65.306 39.482 C 68.504 39.482 71.302 37.688 71.302 35.005 C 71.349 33.283 68.522 31.933 66.734 31.252 Z  M 65.306 47.797 C 60.109 47.797 56.511 51.555 56.511 56.912 C 56.511 62.269 60.109 66.027 65.306 66.027 C 70.503 66.027 74.101 62.269 74.101 56.912 C 74.101 51.555 70.503 47.797 65.306 47.797 Z  M 111.039 54.673 C 101.445 56.992 87.133 54.034 80.417 52.435 C 93.53 49.636 111.999 46.278 123.512 44.439 C 122.872 46.998 118.875 52.754 111.039 54.673 Z  M 86.254 61.309 C 89.612 64.188 94.009 66.826 98.886 66.826 C 100.725 66.826 102.005 65.867 102.644 64.987 C 103.124 64.348 103.124 63.868 103.124 63.708 C 103.044 63.628 102.484 63.228 100.965 63.149 C 96.408 63.068 91.611 62.429 86.254 61.309 Z  M 6.86 44.439 C 7.42 46.998 11.417 52.754 19.333 54.673 C 28.847 56.992 43.239 54.033 49.955 52.434 C 36.842 49.636 18.373 46.278 6.86 44.439 Z  M 29.407 63.148 C 33.964 62.988 38.761 62.429 44.118 61.309 C 40.76 64.268 36.363 66.826 31.486 66.826 C 29.727 66.826 28.367 65.867 27.728 64.987 C 27.248 64.268 27.248 63.788 27.248 63.708 C 27.328 63.548 27.888 63.228 29.407 63.148 Z " fill-rule="evenodd" fill="rgb(72,87,118)"/><path d=" M 92.908 6.537 C 84.242 2.228 74.693 -0.01 65.015 0 C 55.336 0.01 45.792 2.268 37.135 6.596 C 28.478 10.923 20.944 17.202 15.127 24.938 C 13.811 26.689 14.163 29.176 15.914 30.493 C 17.665 31.809 20.152 31.457 21.469 29.706 C 26.547 22.952 33.124 17.47 40.683 13.692 C 48.241 9.914 56.573 7.943 65.023 7.934 C 73.473 7.925 81.81 9.879 89.376 13.641 C 96.942 17.403 103.531 22.871 108.624 29.614 C 109.944 31.362 112.432 31.709 114.18 30.389 C 115.928 29.068 116.275 26.581 114.955 24.832 C 109.121 17.109 101.574 10.846 92.908 6.537 Z  M 126.817 72.242 C 127.158 70.078 125.681 68.047 123.517 67.705 C 121.353 67.364 119.322 68.841 118.98 71.005 C 116.957 83.826 110.43 95.505 100.572 103.947 C 90.713 112.389 78.168 117.041 65.189 117.066 C 52.209 117.092 39.646 112.49 29.754 104.087 C 19.862 95.684 13.289 84.031 11.216 71.218 C 10.866 69.056 8.829 67.586 6.666 67.936 C 4.503 68.287 3.034 70.324 3.384 72.486 C 5.759 87.161 13.287 100.509 24.618 110.134 C 35.948 119.759 50.338 125.029 65.204 125 C 80.071 124.971 94.44 119.643 105.732 109.974 C 117.024 100.305 124.5 86.927 126.817 72.242 Z " fill-rule="evenodd" fill="rgb(195,208,228)"/></g></svg>