<?xml version="1.0" standalone="no"?>
<!DOCTYPE svg PUBLIC "-//W3C//DTD SVG 20010904//EN"
 "http://www.w3.org/TR/2001/REC-SVG-20010904/DTD/svg10.dtd">
<svg version="1.0" xmlns="http://www.w3.org/2000/svg"
 width="700.000000pt" height="700.000000pt" viewBox="0 0 700.000000 700.000000"
 preserveAspectRatio="xMidYMid meet">
<metadata>
Created by potrace 1.11, written by Peter Selinger 2001-2013
</metadata>
<g transform="translate(0.000000,700.000000) scale(0.100000,-0.100000)"
fill="#000000" stroke="none">
<path d="M6389 6637 c-24 -12 -93 -61 -154 -108 -114 -88 -394 -304 -1075
-829 -217 -168 -402 -310 -410 -317 -8 -6 -81 -63 -162 -125 -394 -304 -492
-380 -738 -570 -146 -112 -278 -213 -294 -223 l-28 -19 8 45 c68 379 -198 719
-574 733 -80 4 -201 -13 -253 -34 -21 -9 -35 -5 -95 30 -119 68 -212 94 -336
92 -258 -5 -520 -201 -734 -552 -99 -164 -215 -431 -230 -532 -5 -37 29 -78
66 -78 47 0 60 10 90 69 221 421 567 755 792 762 41 2 118 -23 118 -37 0 -4
-16 -32 -37 -62 -124 -188 -187 -419 -187 -687 1 -155 11 -239 49 -382 50
-190 111 -254 233 -245 105 8 531 205 670 309 18 14 35 23 37 21 2 -2 -6 -30
-17 -63 -29 -87 -32 -242 -6 -343 69 -269 291 -460 568 -487 36 -4 66 -8 68
-10 2 -2 -7 -20 -20 -42 -120 -193 -153 -436 -92 -677 14 -55 47 -148 79 -221
7 -16 25 -68 39 -115 102 -339 61 -665 -118 -932 -78 -116 -141 -181 -273
-279 -52 -39 -100 -83 -109 -101 -40 -77 -18 -160 59 -222 l39 -31 151 0 c143
1 295 9 363 21 16 2 67 11 114 20 623 111 1098 478 1306 1007 114 289 132 660
49 987 -88 346 -278 646 -500 791 -163 105 -274 135 -523 139 -1 0 6 17 17 38
53 105 71 261 45 392 -9 41 -20 81 -26 88 -12 14 -13 14 77 11 175 -5 332 0
435 17 188 29 302 57 459 113 188 67 424 198 566 314 143 117 289 277 389 427
114 169 276 542 301 691 3 19 10 48 15 64 8 27 32 163 45 255 29 210 25 675
-7 783 -15 50 -85 112 -135 121 -58 9 -66 8 -114 -17z m-94 -590 c-2 -23 -6
-78 -9 -122 -26 -360 -133 -704 -302 -963 -69 -107 -126 -177 -215 -263 -208
-203 -481 -345 -784 -408 -126 -26 -218 -35 -375 -35 -208 -1 -320 13 -587 71
-26 6 -85 -42 777 624 195 150 362 279 370 286 8 7 105 81 215 166 110 85 358
276 550 425 193 148 353 268 357 266 4 -2 5 -23 3 -47z m-3277 -1208 c45 -15
98 -63 125 -113 18 -33 22 -58 22 -126 0 -75 -4 -93 -33 -154 -58 -123 -233
-273 -437 -374 -121 -60 -155 -73 -156 -59 0 7 -3 21 -6 32 -3 11 -5 88 -5
170 0 129 3 163 25 247 32 123 85 225 152 292 93 94 198 122 313 85z m850
-938 c159 -81 193 -313 64 -438 -59 -58 -107 -77 -192 -77 -62 0 -84 4 -126
26 -95 50 -147 138 -147 249 0 206 216 335 401 240z m688 -928 c93 -36 214
-135 214 -175 0 -21 -48 -103 -102 -178 -56 -76 -215 -230 -238 -230 -3 0 -11
-9 -18 -20 -17 -28 -5 -69 24 -80 46 -18 226 45 389 135 54 30 105 55 112 55
7 0 19 -10 27 -22 19 -30 56 -161 72 -258 9 -53 16 -229 11 -252 -6 -23 -19
-28 -162 -64 -5 -2 -21 -6 -35 -9 -14 -4 -92 -8 -173 -10 -161 -2 -167 -4
-167 -57 0 -22 9 -34 41 -54 69 -43 222 -107 314 -130 81 -20 105 -33 105 -58
0 -29 -81 -186 -134 -260 -70 -97 -126 -156 -148 -156 -24 0 -81 31 -176 97
-70 47 -96 46 -108 -3 -6 -23 23 -96 46 -114 19 -16 70 -106 65 -118 -3 -7 -5
-17 -5 -22 0 -9 -216 -119 -285 -144 -184 -66 -255 -74 -255 -28 0 10 24 65
53 123 64 126 106 255 134 414 10 55 10 386 0 460 -12 93 -67 303 -97 370 -31
71 -62 163 -74 219 -37 176 15 354 134 466 51 48 142 101 198 116 63 17 176
11 238 -13z"/>
<path d="M3258 6545 c-1 -1 -41 -6 -88 -9 -268 -22 -585 -95 -835 -194 -473
-186 -912 -501 -1229 -882 -43 -52 -87 -105 -97 -117 -80 -96 -262 -396 -336
-553 -94 -200 -194 -477 -219 -605 -2 -11 -6 -29 -8 -40 -31 -140 -38 -177
-42 -215 -2 -25 -6 -56 -9 -70 -28 -150 -28 -591 0 -780 2 -14 7 -45 10 -70
21 -151 79 -384 135 -545 68 -193 162 -396 248 -539 23 -37 42 -70 42 -71 0
-8 88 -136 151 -221 334 -447 781 -789 1299 -993 118 -47 141 -52 183 -47 100
11 170 86 170 180 0 101 -43 145 -198 206 -522 203 -948 550 -1258 1025 -182
280 -343 679 -380 945 0 3 -4 21 -9 40 -4 19 -10 58 -13 85 -3 28 -8 55 -10
62 -24 73 -24 537 0 687 2 11 6 39 10 61 3 22 7 47 10 55 2 8 6 32 9 52 15 98
85 329 143 473 202 497 529 913 959 1221 290 207 623 353 979 430 77 17 254
44 325 49 157 13 498 7 577 -9 12 -3 46 -7 75 -10 179 -20 522 -116 643 -181
91 -48 170 -44 232 13 81 72 87 189 15 265 -33 35 -92 66 -225 118 -90 35
-307 100 -377 113 -14 3 -50 10 -80 16 -30 6 -77 13 -105 16 -27 4 -52 8 -55
9 -5 3 -60 10 -160 21 -53 5 -477 14 -482 9z"/>
<path d="M6314 3985 c-77 -23 -124 -76 -139 -155 -3 -14 8 -79 24 -145 32
-132 38 -171 56 -335 6 -54 6 -297 0 -370 -15 -186 -77 -453 -145 -625 -34
-85 -111 -244 -139 -285 -60 -89 -55 -176 15 -246 65 -66 162 -75 237 -22 79
56 230 368 308 636 17 59 33 116 35 127 2 11 10 54 19 95 13 70 27 169 40 285
7 56 7 395 1 438 -3 15 -7 55 -11 90 -4 34 -9 71 -11 82 -2 11 -7 39 -10 63
-14 101 -64 275 -88 306 -44 58 -121 82 -192 61z"/>
</g>
</svg>
