<svg width="36" height="36" viewBox="0 0 36 36" fill="none" xmlns="http://www.w3.org/2000/svg">
<path d="M33.9355 15.2989C33.8017 15.3358 33.6766 15.3989 33.5673 15.4846C33.4581 15.5703 33.367 15.6768 33.2994 15.798C33.2317 15.9192 33.1887 16.0527 33.1731 16.1906C33.1574 16.3286 33.1693 16.4683 33.208 16.6016C34.3104 20.5461 33.2834 24.2393 31.9261 26.3999C31.8531 26.519 31.8043 26.6512 31.7825 26.7891C31.7607 26.927 31.7664 27.0679 31.7991 27.2036C31.8319 27.3394 31.8911 27.4673 31.9734 27.5801C32.0557 27.6928 32.1594 27.7883 32.2787 27.8609C32.4485 27.9587 32.6409 28.0106 32.8369 28.0116C33.0172 28.0109 33.1944 27.9644 33.3519 27.8765C33.5094 27.7886 33.642 27.6622 33.7374 27.5091C35.7691 24.2681 36.3468 19.8463 35.2444 16.0023C35.208 15.8681 35.1446 15.7427 35.058 15.6338C34.9715 15.5249 34.8637 15.4348 34.7412 15.369C34.6188 15.3032 34.4841 15.263 34.3456 15.2509C34.2071 15.2389 34.0675 15.2552 33.9355 15.2989Z" fill="#C3D0E4"/>
<path d="M12.2313 32.6832C6.1845 30.5728 2.13778 24.744 2.13778 18.1867C2.13778 14.2673 3.74252 10.348 6.5315 7.45874C7.94923 5.96814 9.65618 4.78264 11.5479 3.9748C13.4395 3.16696 15.4761 2.75378 17.533 2.76055C19.8205 2.76055 22.1304 3.23791 23.7352 4.04187C23.8604 4.10548 23.997 4.14358 24.1371 4.15399C24.2772 4.16439 24.4179 4.14688 24.5512 4.10248C24.6844 4.05808 24.8075 3.98767 24.9134 3.89532C25.0192 3.80298 25.1057 3.69054 25.1678 3.56452C25.2919 3.3106 25.3112 3.01802 25.2213 2.75004C25.1315 2.48205 24.9398 2.2602 24.6878 2.13245C22.8049 1.17774 20.1955 0.625012 17.533 0.625012C15.1909 0.62231 12.8727 1.09521 10.7188 2.01507C8.56485 2.93493 6.62002 4.2826 5.00212 5.97642C1.8373 9.26766 0 13.7165 0 18.183C0 25.6448 4.61977 32.2775 11.5262 34.6894C11.6387 34.733 11.7592 34.7523 11.8797 34.7462C12.0988 34.7447 12.3124 34.6765 12.4918 34.5507C12.6713 34.4249 12.8082 34.2474 12.8844 34.0418C12.9315 33.9097 12.952 33.7697 12.9446 33.6296C12.9372 33.4896 12.9022 33.3525 12.8414 33.2261C12.7807 33.0998 12.6955 32.9867 12.5908 32.8935C12.486 32.8003 12.3639 32.7289 12.2313 32.6832Z" fill="#C3D0E4"/>
<path d="M30.7943 13.996C33.4558 12.2374 35.1666 9.39836 35.7657 5.80749C36.0209 4.1866 36.0563 2.53867 35.8708 0.908316C35.8444 0.725305 35.7703 0.552468 35.656 0.40712C35.5417 0.261773 35.3912 0.149019 35.2196 0.0801547C35.0499 0.00869962 34.864 -0.0156178 34.6817 0.00976671C34.4993 0.0351513 34.3271 0.109297 34.1833 0.224385L18.0383 12.7101C18.1791 12.1765 18.2007 11.6185 18.1013 11.0756C18.0019 10.5328 17.7841 10.0186 17.4634 9.56957C16.4057 8.16263 14.6214 7.91139 13.2185 8.46412L13.0157 8.3385C11.9924 7.66015 10.9086 7.50941 9.82857 7.91139C7.74381 8.69024 6.10745 11.4539 5.40416 13.8407C5.37823 13.9411 5.38981 14.0475 5.43674 14.14C5.48366 14.2325 5.56271 14.3048 5.65905 14.3431C5.71368 14.366 5.77321 14.3746 5.83208 14.3683C5.90901 14.369 5.9846 14.3482 6.05035 14.3082C6.11609 14.2683 6.16938 14.2108 6.2042 14.1421C7.31402 11.9089 9.14388 9.97156 10.4835 9.64588C10.6453 9.59489 10.8163 9.57964 10.9846 9.60117C11.153 9.62269 11.3146 9.68049 11.4584 9.77057L11.5328 9.82081C10.8361 10.7002 10.4081 11.8307 10.2584 13.1623C10.1011 14.5441 10.303 16.0469 10.7607 17.0816C10.8414 17.2722 10.9775 17.434 11.1514 17.546C11.3253 17.658 11.5289 17.7151 11.7356 17.7097C11.8473 17.7053 11.958 17.6885 12.0659 17.6595C13.0408 17.3329 14.6232 16.7048 15.9275 15.7249C15.7551 16.1067 15.6536 16.5166 15.6279 16.9346C15.5492 17.9082 15.8563 18.8737 16.4829 19.6229C16.7933 19.9968 17.1756 20.3047 17.607 20.5285C18.0384 20.7522 18.5102 20.8873 18.9946 20.9256C19.0997 20.9256 19.2198 20.9507 19.3249 20.9507H19.417C18.509 22.2321 18.1871 24.041 19.0449 26.0258C20.9054 30.2969 18.5648 33.1359 16.9052 34.1399C16.719 34.2491 16.5739 34.4167 16.4925 34.6167C16.4111 34.8167 16.3979 35.038 16.455 35.2463C16.5164 35.455 16.641 35.6395 16.8115 35.7745C16.9821 35.9095 17.1904 35.9883 17.4076 36H17.8578C23.8423 36 26.4741 33.0605 27.5327 31.2767C29.2128 28.4126 29.1375 24.7193 27.3299 21.6542C26.3997 20.0723 24.5931 18.765 22.5604 19.0413C22.8087 18.5916 22.9619 18.0956 23.0106 17.5841C23.0696 17.0196 22.9855 16.4493 22.766 15.9259C23.2493 15.9769 23.735 16.002 24.2209 16.0013C26.2499 15.9259 28.5895 15.4737 30.7943 13.996ZM12.4138 15.2225C12.2923 14.6019 12.2669 13.9664 12.3385 13.3382C12.4315 12.4588 12.7357 11.278 13.6883 10.5997C13.9614 10.4113 14.2869 10.3136 14.6186 10.3205C14.8321 10.3143 15.0441 10.3588 15.237 10.4506C15.43 10.5423 15.5984 10.6785 15.7284 10.8481C16.2308 11.5516 16.0075 12.4812 15.5479 13.0813C14.9516 13.8658 13.8353 14.6474 12.4138 15.2225ZM19.1379 18.7649C18.9297 18.7519 18.7265 18.696 18.5408 18.6009C18.3552 18.5058 18.1911 18.3735 18.0588 18.2122C17.7885 17.8904 17.6549 17.4756 17.6866 17.0565C17.7188 16.6632 17.8963 16.2959 18.1846 16.0265C18.4729 15.757 18.8513 15.6047 19.2458 15.5993H19.3658C19.5743 15.6115 19.778 15.6669 19.964 15.762C20.1499 15.8572 20.314 15.99 20.4459 16.1521C20.7185 16.473 20.8556 16.8875 20.8282 17.3078C20.8124 17.5161 20.7548 17.7191 20.6589 17.9047C20.5631 18.0903 20.4308 18.2547 20.27 18.3881C20.1166 18.5242 19.9371 18.6277 19.7426 18.6925C19.548 18.7573 19.3423 18.7819 19.1379 18.7649ZM23.1055 20.9507C23.7567 20.9507 24.4628 21.2299 25.0926 21.9306C25.1236 21.9636 25.1449 22.0045 25.1542 22.0488C25.1636 22.0931 25.1606 22.1391 25.1456 22.1818C24.7624 22.9858 23.9605 23.9656 23.1809 24.4681C23.1229 24.5084 23.0797 24.5667 23.0578 24.6339C23.036 24.7011 23.0367 24.7736 23.0599 24.8403C23.0893 24.9116 23.1423 24.9706 23.2101 25.0072C23.278 25.0438 23.3564 25.0559 23.4321 25.0413C24.0619 24.9157 24.9614 24.5639 25.7187 24.0866C25.794 24.0363 25.8387 24.0112 25.9215 23.961C25.9531 23.9402 25.9891 23.9269 26.0266 23.922C26.0641 23.9172 26.1023 23.921 26.1382 23.9331C26.174 23.9452 26.2066 23.9653 26.2336 23.9919C26.2605 24.0185 26.281 24.0509 26.2936 24.0866C26.6108 24.99 26.7633 25.9431 26.7439 26.9005C26.7426 26.9516 26.7252 27.0011 26.6941 27.0417C26.663 27.0823 26.6199 27.112 26.5708 27.1266C25.7615 27.4057 24.8089 27.5537 24.0591 27.4281C23.8786 27.4029 23.7065 27.4532 23.6535 27.6291C23.579 27.8049 23.6767 27.9557 23.8339 28.0562C24.5389 28.4588 25.2993 28.7551 26.0908 28.9355C26.1262 28.941 26.1599 28.9548 26.1891 28.9756C26.2183 28.9964 26.2423 29.0238 26.2591 29.0555C26.2759 29.0872 26.2851 29.1224 26.2859 29.1582C26.2867 29.1941 26.2792 29.2297 26.2638 29.2621C26.1436 29.5859 25.9928 29.8974 25.8136 30.1926C25.545 30.6618 25.2145 31.0928 24.8312 31.474C24.7926 31.5123 24.743 31.5377 24.6894 31.5467C24.6358 31.5556 24.5807 31.5478 24.5317 31.5242C24.1579 31.337 23.8057 31.1095 23.4814 30.8459C23.4586 30.822 23.4312 30.803 23.4009 30.7901C23.3706 30.7771 23.338 30.7704 23.3051 30.7704C23.2721 30.7704 23.2395 30.7771 23.2092 30.7901C23.1789 30.803 23.1515 30.822 23.1288 30.8459C23.0741 30.8899 23.0365 30.9517 23.0228 31.0206C23.009 31.0895 23.0198 31.161 23.0534 31.2227C23.2312 31.5467 23.4317 31.8577 23.6535 32.1532C23.6907 32.2076 23.7061 32.2741 23.6964 32.3393C23.6867 32.4046 23.6528 32.4637 23.6014 32.505C22.7563 33.0277 21.832 33.4095 20.8645 33.6356C20.8166 33.646 20.7668 33.6424 20.7209 33.6253C20.675 33.6082 20.6349 33.5782 20.6055 33.539C20.5762 33.4998 20.5586 33.453 20.5551 33.4041C20.5515 33.3553 20.562 33.3064 20.5854 33.2633C22.1232 30.7761 21.9734 27.6356 20.9157 25.1986C20.083 23.2891 20.9157 21.8068 22.0478 21.2541C22.3008 21.0512 22.6795 20.9507 23.1074 20.9507H23.1055ZM20.751 13.313L33.8614 3.16296C33.8382 5.62511 33.2102 9.84594 29.6166 12.2327C26.4518 14.318 22.8376 13.8658 20.7529 13.313H20.751Z" fill="#9AADCE"/>
</svg>
