<?xml version="1.0" standalone="no"?>
<!DOCTYPE svg PUBLIC "-//W3C//DTD SVG 20010904//EN"
 "http://www.w3.org/TR/2001/REC-SVG-20010904/DTD/svg10.dtd">
<svg version="1.0" xmlns="http://www.w3.org/2000/svg"
 width="658.000000pt" height="658.000000pt" viewBox="0 0 658.000000 658.000000"
 preserveAspectRatio="xMidYMid meet">
<metadata>
Created by potrace 1.11, written by Peter Selinger 2001-2013
</metadata>
<g transform="translate(0.000000,658.000000) scale(0.100000,-0.100000)"
fill="#000000" stroke="none">
<path d="M3068 6445 c-3 -3 -40 -8 -84 -11 -86 -7 -126 -11 -134 -14 -3 -1 -8
-2 -12 -1 -4 0 -31 -4 -60 -9 -29 -6 -65 -13 -81 -15 -71 -13 -171 -36 -238
-55 -41 -12 -81 -23 -89 -25 -65 -15 -318 -111 -337 -127 -7 -6 -13 -8 -13 -5
0 8 -225 -103 -315 -156 -38 -22 -117 -72 -175 -110 -89 -60 -144 -101 -313
-236 -41 -32 -293 -287 -330 -333 -21 -26 -43 -53 -50 -60 -140 -147 -149
-282 -24 -385 23 -19 83 -32 130 -28 61 6 108 36 158 102 23 31 49 63 58 73 9
9 38 42 65 73 121 141 215 226 471 425 28 21 158 104 173 109 9 4 19 10 22 13
21 28 329 171 492 228 84 30 350 101 398 107 43 5 114 16 130 20 101 26 561
27 730 1 14 -2 48 -7 75 -11 28 -3 81 -13 119 -22 37 -8 75 -17 85 -18 9 -2
16 -4 16 -5 0 -1 9 -3 20 -5 29 -4 194 -53 235 -69 19 -8 78 -31 130 -52 97
-38 334 -156 386 -191 16 -11 56 -37 89 -58 229 -149 473 -373 645 -592 83
-106 148 -139 235 -121 90 19 167 114 159 195 -7 73 -16 94 -78 171 -34 42
-71 88 -81 102 -33 40 -296 302 -350 347 -27 23 -79 65 -115 93 -36 28 -73 57
-83 65 -9 8 -20 15 -23 15 -3 0 -23 14 -44 30 -21 17 -43 30 -49 30 -6 0 -11
3 -11 8 0 4 -10 12 -23 18 -12 6 -53 30 -92 54 -64 39 -250 136 -335 173 -35
16 -90 39 -100 42 -3 1 -18 7 -35 14 -88 37 -377 124 -454 137 -14 3 -60 11
-101 19 -85 16 -124 22 -195 30 -27 4 -63 9 -80 11 -40 7 -511 15 -517 9z"/>
<path d="M2541 5499 c-47 -10 -72 -39 -78 -90 -6 -66 19 -89 149 -133 141 -48
189 -76 273 -159 66 -66 68 -70 50 -83 -107 -76 -193 -166 -228 -238 -70 -143
-10 -352 141 -486 31 -27 54 -51 51 -53 -2 -2 -20 -14 -39 -28 -46 -31 -78
-59 -104 -87 -20 -23 -31 -23 -106 -7 -93 21 -118 26 -145 31 -16 3 -43 9 -60
14 -16 5 -43 11 -60 14 -16 2 -100 19 -185 36 -85 18 -166 34 -180 37 -14 3
-29 6 -35 7 -5 2 -32 7 -60 11 -56 10 -64 12 -67 14 -2 2 -16 4 -33 6 -16 2
-41 7 -55 10 -13 4 -40 8 -60 11 -19 2 -42 7 -52 10 -9 2 -40 9 -70 14 -29 5
-65 12 -81 15 -15 2 -53 9 -85 15 -69 12 -98 18 -135 26 -16 3 -38 7 -50 9
-20 3 -74 12 -116 20 -9 1 -36 6 -61 10 -25 4 -53 9 -62 11 -10 2 -28 6 -40 9
-12 2 -40 7 -63 10 -22 3 -51 8 -65 10 -14 3 -41 7 -60 10 -19 3 -62 10 -95
16 -33 6 -73 13 -90 16 -16 2 -41 6 -55 9 -14 2 -43 7 -65 10 -22 3 -56 9 -75
13 -100 21 -216 -9 -288 -74 -206 -185 -83 -579 272 -873 138 -114 390 -235
556 -267 52 -10 74 -13 86 -14 7 -1 11 -30 10 -83 0 -98 16 -163 60 -238 32
-54 96 -130 110 -130 4 0 14 -8 23 -19 20 -23 167 -101 191 -101 9 0 20 -3 23
-7 4 -3 19 -8 34 -11 37 -7 263 -6 288 0 11 3 40 9 65 14 51 9 50 9 70 17 8 3
38 13 65 22 86 28 224 99 325 168 101 69 124 87 222 177 53 50 98 90 101 90 2
0 14 -20 27 -44 12 -25 35 -60 50 -78 l27 -32 -38 -71 c-61 -114 -107 -268
-127 -425 -13 -103 -5 -424 14 -511 5 -23 7 -35 19 -109 15 -83 89 -335 105
-355 5 -5 9 -14 10 -20 5 -23 23 -64 62 -140 191 -377 462 -526 725 -398 172
83 342 312 438 588 15 44 30 87 33 95 4 13 9 32 16 65 1 6 4 15 7 20 4 6 10
28 14 50 5 22 9 42 10 45 13 53 27 140 41 255 9 68 9 321 0 405 -14 138 -64
310 -122 420 -19 35 -34 68 -34 73 0 5 18 34 40 66 22 31 40 62 40 68 0 30 26
20 79 -29 90 -84 135 -122 172 -148 19 -13 36 -27 39 -30 10 -11 136 -89 190
-117 30 -15 57 -30 60 -33 3 -3 10 -6 15 -7 6 -1 46 -16 89 -32 44 -17 102
-35 130 -41 28 -6 62 -13 76 -16 14 -3 79 -7 145 -9 106 -2 129 0 200 23 44
14 82 29 83 34 2 4 9 8 16 8 19 0 125 77 157 113 63 73 72 84 89 118 31 60 52
157 48 228 l-3 65 95 22 c52 12 124 31 160 44 74 25 212 89 221 103 3 5 8 8
10 6 6 -4 89 50 159 104 164 127 297 300 351 458 29 85 31 100 31 194 0 97
-30 173 -91 228 -93 84 -187 100 -381 62 -14 -2 -36 -7 -50 -9 -14 -3 -43 -8
-65 -11 -22 -3 -67 -10 -100 -16 -33 -6 -72 -13 -87 -15 -41 -6 -76 -12 -140
-24 -32 -5 -84 -15 -115 -20 -32 -6 -71 -13 -87 -15 -15 -2 -35 -6 -45 -9 -9
-3 -36 -8 -61 -11 -25 -4 -64 -11 -88 -16 -23 -5 -57 -11 -75 -14 -17 -2 -68
-11 -112 -19 -44 -8 -96 -18 -115 -21 -19 -3 -42 -8 -50 -10 -8 -2 -31 -7 -50
-10 -19 -3 -42 -8 -50 -10 -8 -2 -32 -6 -52 -9 -21 -3 -57 -10 -80 -15 -24 -6
-56 -12 -73 -15 -33 -6 -69 -14 -100 -20 -37 -8 -280 -57 -302 -62 -13 -2 -33
-6 -45 -8 -13 -3 -77 -16 -143 -31 -66 -15 -129 -28 -140 -31 -13 -2 -37 12
-70 41 -28 24 -67 54 -87 67 -21 13 -37 25 -37 28 0 3 14 16 32 29 17 13 48
44 67 68 19 24 40 49 45 56 36 42 73 154 78 232 6 97 -21 173 -94 258 -41 48
-150 137 -167 137 -5 0 -13 7 -16 16 -9 24 97 123 179 166 64 33 172 74 219
84 35 7 75 59 71 94 -1 8 -3 22 -3 31 -4 36 -71 82 -110 74 -105 -20 -326
-212 -392 -338 -19 -37 -35 -67 -36 -67 -7 0 -71 30 -77 36 -18 18 -137 50
-183 48 -66 -1 -121 -18 -209 -63 -41 -21 -77 -36 -80 -33 -3 4 -14 25 -25 48
-43 98 -150 217 -259 288 -100 65 -144 83 -180 75z m817 -625 c113 -36 231
-120 233 -167 3 -54 -4 -85 -27 -120 -109 -167 -420 -168 -536 -2 -47 66 -48
118 -6 165 51 57 216 140 273 138 11 -1 39 -7 63 -14z m-2923 -680 c28 -3 59
-8 70 -10 49 -10 74 -14 106 -19 19 -2 45 -6 59 -9 14 -3 93 -16 175 -30 83
-14 161 -28 175 -31 14 -3 39 -8 55 -10 73 -13 142 -25 165 -30 14 -3 39 -8
55 -10 86 -15 143 -26 165 -31 14 -3 34 -6 45 -8 39 -6 110 -18 130 -23 24 -5
160 -32 195 -38 14 -2 36 -7 50 -10 14 -3 39 -8 55 -10 17 -3 62 -12 100 -20
39 -8 81 -16 95 -19 14 -3 36 -7 50 -10 26 -6 106 -22 150 -31 14 -3 39 -8 55
-10 17 -3 53 -12 80 -19 l50 -13 -42 -7 c-24 -4 -46 -8 -50 -8 -5 0 -18 -4
-31 -9 -13 -5 -37 -11 -55 -14 -18 -4 -51 -10 -73 -15 -23 -5 -56 -12 -75 -14
-19 -3 -45 -8 -59 -11 -37 -8 -79 -15 -257 -40 -160 -23 -262 -29 -473 -29
-227 0 -289 6 -470 49 -118 27 -305 134 -400 227 -87 86 -160 190 -176 252 -6
24 -4 27 12 23 11 -3 42 -9 69 -13z m5777 -30 c-9 -24 -20 -44 -24 -44 -4 0
-8 -5 -8 -12 0 -15 -74 -112 -120 -157 -178 -171 -381 -262 -645 -289 -140
-14 -479 -7 -635 13 -19 2 -57 7 -85 10 -27 4 -57 8 -65 10 -8 2 -37 7 -63 10
-27 3 -67 9 -90 14 -23 5 -62 12 -87 16 -25 3 -53 8 -63 11 -11 4 -29 8 -40 9
-27 5 -62 13 -62 15 0 1 -11 3 -25 5 -75 8 -163 35 -117 35 23 0 29 1 55 11
13 5 37 11 55 14 18 3 59 12 92 20 33 7 77 16 97 19 21 3 57 10 80 15 24 6 57
12 73 15 17 3 41 8 55 11 14 3 36 7 50 10 14 3 36 7 50 10 14 3 72 14 130 25
108 21 120 23 180 34 19 3 46 8 60 11 38 8 61 12 110 20 25 4 54 9 65 12 29 6
115 22 150 27 17 3 55 10 85 17 30 6 69 12 85 14 17 3 41 7 55 10 14 3 43 8
65 11 22 2 46 7 54 10 8 2 30 7 50 10 20 2 52 7 71 10 19 4 44 8 55 9 11 2 36
6 55 10 19 4 49 8 65 10 17 2 30 4 30 5 0 1 9 3 20 4 48 7 110 18 112 20 1 1
11 2 22 3 19 2 19 0 3 -43z m-2762 -149 c68 -28 121 -63 166 -111 146 -153
159 -436 28 -615 -39 -53 -78 -85 -149 -122 -65 -34 -101 -41 -210 -41 -70 -1
-104 4 -154 23 -71 26 -70 25 -146 94 -85 77 -130 187 -134 324 -4 138 40 259
125 345 52 53 144 105 200 114 21 3 41 8 43 10 12 11 191 -5 231 -21z m-1250
-676 c-14 -11 -34 -28 -45 -37 -76 -63 -255 -163 -320 -178 -16 -4 -34 -9 -40
-13 -5 -3 -17 -7 -25 -8 -128 -24 -232 -24 -283 0 -70 34 -136 124 -104 144
17 10 67 16 247 27 52 4 113 9 135 11 47 6 122 16 150 20 11 2 40 6 65 9 25 3
56 8 70 11 14 2 41 8 60 11 19 4 51 10 70 14 19 4 37 8 40 9 3 0 -6 -9 -20
-20z m2225 5 c60 -12 131 -25 165 -30 19 -2 46 -7 60 -9 14 -3 45 -7 70 -10
25 -3 61 -7 80 -10 19 -2 76 -7 125 -10 230 -14 275 -21 275 -45 0 -40 -58
-101 -124 -131 -50 -22 -163 -20 -270 5 -93 22 -256 102 -347 170 -41 31 -77
56 -81 56 -5 0 -8 7 -8 15 0 8 6 12 13 10 6 -2 26 -7 42 -11z m-1400 -495 c66
-23 78 -26 149 -38 52 -9 210 -7 264 3 18 4 67 17 109 31 43 13 78 23 80 21 7
-6 61 -146 57 -146 -3 0 0 -9 6 -19 5 -11 13 -37 16 -58 3 -21 9 -56 13 -79 4
-22 7 -62 7 -89 -1 -44 -4 -50 -36 -68 -48 -27 -135 -71 -192 -96 -45 -20 -60
-42 -38 -56 15 -9 78 -16 160 -16 98 -1 113 -5 104 -31 -3 -11 -8 -39 -10 -61
-2 -23 -6 -53 -9 -67 -3 -14 -8 -41 -11 -60 -3 -19 -12 -60 -20 -90 -9 -30
-18 -64 -21 -75 -3 -15 -36 -36 -106 -70 -55 -28 -102 -55 -104 -62 -6 -17 25
-30 86 -37 30 -3 56 -8 59 -10 6 -6 -63 -141 -104 -202 -83 -125 -167 -179
-235 -150 -74 31 -141 111 -218 259 -28 53 -50 97 -49 98 2 0 30 3 63 6 72 6
108 19 103 36 -2 6 -47 35 -100 62 -128 67 -128 67 -134 101 -3 16 -10 47 -16
69 -10 39 -13 52 -23 105 -7 36 -16 105 -19 144 l-3 33 86 1 c89 0 177 8 192
18 25 15 -1 37 -97 85 -136 67 -195 105 -190 121 3 7 7 38 10 69 5 49 13 92
31 169 16 64 61 170 72 170 5 0 36 -9 68 -21z"/>
<path d="M6143 3030 c-75 -17 -135 -91 -148 -181 -5 -36 -32 -164 -50 -239
-13 -55 -50 -170 -81 -255 -20 -55 -38 -108 -41 -117 -3 -10 -9 -18 -12 -18
-4 0 -8 -6 -8 -12 0 -18 -138 -295 -154 -308 -3 -3 -9 -12 -13 -20 -19 -41
-182 -278 -206 -300 -3 -3 -34 -39 -69 -80 -132 -153 -320 -327 -456 -421 -27
-18 -52 -37 -55 -40 -30 -35 -397 -239 -430 -239 -6 0 -10 -4 -10 -10 0 -5 -7
-10 -15 -10 -8 0 -23 -4 -33 -10 -50 -27 -276 -105 -392 -135 -117 -31 -278
-59 -395 -71 -38 -3 -86 -8 -105 -10 -55 -4 -362 -5 -390 0 -14 2 -52 7 -85
10 -112 12 -200 25 -245 36 -19 5 -53 12 -75 16 -22 3 -48 10 -57 15 -9 5 -21
8 -25 7 -10 -2 -109 26 -183 53 -30 11 -62 22 -71 24 -31 7 -195 77 -290 125
-176 88 -389 226 -516 335 -173 149 -300 278 -398 405 -27 36 -55 71 -62 78
-7 7 -20 26 -30 42 -9 17 -21 30 -25 30 -4 0 -8 4 -8 9 0 5 -18 36 -39 69 -43
64 -73 115 -106 177 -11 22 -25 47 -30 55 -5 8 -10 17 -11 20 0 3 -19 43 -41
90 -71 151 -159 407 -179 520 -2 8 -8 33 -13 55 -6 22 -13 58 -16 80 -12 85
-26 119 -63 159 -58 62 -158 79 -233 41 -43 -22 -63 -43 -90 -95 -18 -35 -21
-51 -15 -108 6 -74 24 -167 48 -257 5 -22 12 -49 15 -60 5 -25 8 -36 15 -55 3
-8 18 -53 32 -100 30 -94 58 -173 87 -237 11 -24 19 -45 19 -48 0 -13 141
-287 185 -360 60 -100 176 -269 187 -273 4 -2 8 -8 8 -13 0 -10 2 -12 128
-159 123 -145 262 -277 442 -424 13 -10 57 -43 99 -72 42 -30 81 -58 88 -64 7
-5 16 -10 22 -10 5 0 11 -4 13 -8 8 -20 403 -238 448 -247 3 -1 21 -8 40 -16
19 -9 69 -28 110 -43 41 -15 84 -31 95 -36 91 -39 405 -117 545 -135 14 -2 39
-6 55 -9 28 -4 112 -13 225 -22 112 -10 407 -3 530 11 36 4 77 8 93 9 15 0 27
3 27 6 0 3 12 6 28 7 32 1 101 12 122 18 8 2 31 7 50 10 19 3 62 13 95 21 33
9 67 17 75 19 21 5 152 45 170 52 8 4 17 7 20 8 56 14 226 83 359 146 57 27
107 49 112 49 5 0 9 4 9 9 0 5 12 14 28 20 15 6 34 15 42 21 8 5 58 35 110 67
52 32 101 63 108 70 8 7 23 18 35 24 11 7 26 16 31 21 6 5 38 29 70 54 235
179 470 418 631 644 22 30 42 57 46 60 6 5 92 143 142 228 31 54 177 348 177
357 0 4 6 21 14 38 46 103 139 406 160 522 3 17 8 41 11 55 2 14 8 45 13 70
17 93 -2 163 -58 214 -55 49 -113 64 -187 46z"/>
</g>
</svg>
