<svg width="16" height="18" viewBox="0 0 16 18" fill="none" xmlns="http://www.w3.org/2000/svg">
<path d="M1 0C1.26522 0 1.51957 0.105357 1.70711 0.292893C1.89464 0.48043 2 0.734784 2 1V17C2 17.2652 1.89464 17.5196 1.70711 17.7071C1.51957 17.8946 1.26522 18 1 18C0.734784 18 0.48043 17.8946 0.292893 17.7071C0.105357 17.5196 0 17.2652 0 17V1C0 0.734784 0.105357 0.48043 0.292893 0.292893C0.48043 0.105357 0.734784 0 1 0ZM15 4C15.2652 4 15.5196 4.10536 15.7071 4.29289C15.8946 4.48043 16 4.73478 16 5V17C16 17.2652 15.8946 17.5196 15.7071 17.7071C15.5196 17.8946 15.2652 18 15 18C14.7348 18 14.4804 17.8946 14.2929 17.7071C14.1054 17.5196 14 17.2652 14 17V5C14 4.73478 14.1054 4.48043 14.2929 4.29289C14.4804 4.10536 14.7348 4 15 4ZM8 8C8.26522 8 8.51957 8.10536 8.70711 8.29289C8.89464 8.48043 9 8.73478 9 9V17C9 17.2652 8.89464 17.5196 8.70711 17.7071C8.51957 17.8946 8.26522 18 8 18C7.73478 18 7.48043 17.8946 7.29289 17.7071C7.10536 17.5196 7 17.2652 7 17V9C7 8.73478 7.10536 8.48043 7.29289 8.29289C7.48043 8.10536 7.73478 8 8 8Z" fill="currentColor"/>
</svg>
