<svg width="8" height="14" viewBox="0 0 8 14" fill="none" xmlns="http://www.w3.org/2000/svg">
<path d="M5.48206 6.98708L0.318462 12.1921C0.218831 12.2891 0.139361 12.4052 0.0846907 12.5334C0.0300203 12.6617 0.00124313 12.7997 3.95234e-05 12.9393C-0.00116408 13.079 0.0252297 13.2174 0.0776802 13.3467C0.130131 13.4759 0.207588 13.5933 0.305532 13.692C0.403476 13.7907 0.519946 13.8688 0.648146 13.9217C0.776345 13.9746 0.913707 14.0012 1.05222 14C1.19072 13.9987 1.32761 13.9697 1.45487 13.9146C1.58214 13.8595 1.69725 13.7794 1.79348 13.679L7.69458 7.73051C7.89014 7.53332 8 7.26591 8 6.98708C8 6.70825 7.89014 6.44084 7.69458 6.24365L1.79348 0.295175C1.59674 0.103632 1.33323 -0.00235606 1.05972 3.97504e-05C0.786213 0.00243556 0.524578 0.113023 0.331169 0.307985C0.137761 0.502946 0.0280534 0.766681 0.0256767 1.04239C0.0232999 1.31809 0.128444 1.58371 0.318462 1.78203L5.48206 6.98708Z" fill="currentColor" />
</svg>
