<svg width="24" height="24" xmlns="http://www.w3.org/2000/svg">
<path d="m23.7055,11.46295q-1.43475,-3.0227 -3.41479,-4.93035l-1.38442,1.38442c1.12892,1.07886 2.11227,2.49021 2.96257,4.24794c-2.26383,4.68547 -5.47726,6.9112 -9.86887,6.9112q-1.97731,0 -3.64253,-0.60895l-1.50006,1.50006q2.3128,1.06797 5.14259,1.06797q7.84449,0 11.70551,-8.171a1.64046,1.64046 0 0 0 0,-1.40129zm-1.72971,-8.72444l-1.15994,-1.1613a0.21768,0.21768 0 0 0 -0.30801,0l-2.9759,2.97454q-2.4611,-1.25708 -5.53196,-1.25708q-7.84449,0 -11.70551,8.171a1.64073,1.64073 0 0 0 0,1.40129q1.5425,3.24881 3.71409,5.20816l-2.8793,2.87849a0.21768,0.21768 0 0 0 0,0.30774l1.16157,1.16157a0.21768,0.21768 0 0 0 0.30774,0l19.37722,-19.3764a0.21768,0.21768 0 0 0 0,-0.30801zm-19.84468,9.42645c2.26655,-4.68547 5.47999,-6.9112 9.86887,-6.9112c1.484,0 2.83332,0.25468 4.05747,0.77248l-1.91282,1.91282a4.78886,4.78886 0 0 0 -6.47939,6.47939l-2.26981,2.26981c-1.25626,-1.10879 -2.3392,-2.61102 -3.26432,-4.5233zm6.71257,0a3.05045,3.05045 0 0 1 3.97802,-2.90298l-3.83354,3.83354a3.04746,3.04746 0 0 1 -0.14448,-0.93056z" fill="currentColor"/>
<path d="m11.89115,15.21242c-0.09414,0 -0.18693,-0.00435 -0.2789,-0.01279l-1.4372,1.4372a4.79131,4.79131 0 0 0 6.18798,-6.18798l-1.4372,1.4372c0.00843,0.09197 0.01279,0.18475 0.01279,0.2789a3.04583,3.04583 0 0 1 -3.04746,3.04746z" fill="currentColor"/>
</svg>