<svg width="20" height="20" xmlns="http://www.w3.org/2000/svg">
<path d="m19.49261,11.36231c-0.20411,-0.05103 -0.40822,0 -0.58682,0.12757c-0.66336,0.56131 -1.42878,1.02056 -2.27074,1.32672c-0.79093,0.30617 -1.6584,0.45925 -2.5769,0.45925c-2.06662,0 -3.95465,-0.84196 -5.30689,-2.19419c-1.35224,-1.35224 -2.19419,-3.24026 -2.19419,-5.30689c0,-0.86747 0.15308,-1.70943 0.40822,-2.47485c0.28065,-0.81644 0.68887,-1.55635 1.22467,-2.19419c0.22962,-0.28065 0.1786,-0.68887 -0.10206,-0.9185c-0.1786,-0.12757 -0.38271,-0.1786 -0.58682,-0.12757c-2.16868,0.58682 -4.05671,1.88803 -5.40894,3.62297c-1.30121,1.70943 -2.09214,3.82708 -2.09214,6.14885c0,2.78101 1.12261,5.30689 2.95961,7.14389s4.36287,2.95961 7.14389,2.95961c2.34728,0 4.51596,-0.81644 6.2509,-2.16868c1.76046,-1.37775 3.03615,-3.34232 3.57194,-5.58754c0.12757,-0.38271 -0.07654,-0.7399 -0.43374,-0.81644zm-3.90362,5.3324c-1.47981,1.17364 -3.36783,1.88803 -5.43446,1.88803c-2.42382,0 -4.61801,-0.99504 -6.19987,-2.5769c-1.58186,-1.58186 -2.5769,-3.77605 -2.5769,-6.19987c0,-2.0156 0.66336,-3.8526 1.81149,-5.3324c0.79093,-1.02056 1.78597,-1.86251 2.9341,-2.44933c-0.12757,0.28065 -0.25514,0.56131 -0.35719,0.86747c-0.33168,0.9185 -0.48476,1.88803 -0.48476,2.90858c0,2.42382 0.99504,4.64353 2.5769,6.22539s3.80157,2.5769 6.22539,2.5769c1.07158,0 2.09214,-0.1786 3.03615,-0.53579c0.33168,-0.12757 0.66336,-0.25514 0.96953,-0.40822c-0.61233,1.17364 -1.45429,2.21971 -2.50036,3.03615z" fill="currentColor" />
</svg>