<svg width="15" height="14" viewBox="0 0 15 14" fill="none" xmlns="http://www.w3.org/2000/svg">
<path d="M11.585 6L5.94297 6C5.67775 6 5.4234 6.10536 5.23586 6.29289C5.04832 6.48043 4.94297 6.73478 4.94297 7C4.94297 7.26522 5.04832 7.51957 5.23586 7.70711C5.4234 7.89464 5.67775 8 5.94297 8H11.585L10.463 9.121C10.2753 9.30877 10.17 9.5634 10.1701 9.82885C10.1701 10.0943 10.2757 10.3489 10.4635 10.5365C10.6512 10.7241 10.9059 10.8295 11.1713 10.8294C11.4368 10.8293 11.6913 10.7238 11.879 10.536L14.706 7.707C14.7992 7.61435 14.8731 7.50419 14.9236 7.38285C14.974 7.26152 15 7.13141 15 7C15 6.86859 14.974 6.73848 14.9236 6.61715C14.8731 6.49581 14.7992 6.38565 14.706 6.293L11.878 3.464C11.785 3.37109 11.6746 3.2974 11.5532 3.24714C11.4317 3.19689 11.3016 3.17104 11.1701 3.17109C11.0387 3.17114 10.9085 3.19707 10.7871 3.24742C10.6657 3.29776 10.5554 3.37152 10.4625 3.4645C10.3696 3.55748 10.2959 3.66784 10.2456 3.7893C10.1954 3.91075 10.1695 4.04091 10.1696 4.17235C10.1696 4.30379 10.1955 4.43394 10.2459 4.55536C10.2962 4.67678 10.37 4.78709 10.463 4.88L11.585 6ZM8.99897 11C8.99897 10.7348 8.89361 10.4804 8.70607 10.2929C8.51854 10.1054 8.26418 10 7.99897 10C7.73375 10 7.47939 10.1054 7.29186 10.2929C7.10432 10.4804 6.99897 10.7348 6.99897 11V12H2.99897V2H6.99897V3C6.99897 3.26522 7.10432 3.51957 7.29186 3.70711C7.47939 3.89464 7.73375 4 7.99897 4C8.26418 4 8.51854 3.89464 8.70607 3.70711C8.89361 3.51957 8.99897 3.26522 8.99897 3V2C8.99897 1.46957 8.78825 0.960859 8.41318 0.585787C8.03811 0.210714 7.5294 0 6.99897 0H2.99897C2.46853 0 1.95982 0.210714 1.58475 0.585787C1.20968 0.960859 0.998965 1.46957 0.998965 2V12C0.998965 12.5304 1.20968 13.0391 1.58475 13.4142C1.95982 13.7893 2.46853 14 2.99897 14H6.99897C7.5294 14 8.03811 13.7893 8.41318 13.4142C8.78825 13.0391 8.99897 12.5304 8.99897 12V11Z" fill="#309CFF"/>
</svg>
