<svg width="24" height="24" xmlns="http://www.w3.org/2000/svg">
  <path d="m21.87281,24l-12.02632,0c-1.10464,0 -2.00439,-1.009 -2.00439,-2.25l0,-10.5c0,-1.241 0.89975,-2.25 2.00439,-2.25l12.02632,0c1.10464,0 2.00439,1.009 2.00439,2.25l0,10.5c0,1.241 -0.89975,2.25 -2.00439,2.25zm-12.02632,-13.5c-0.36792,0 -0.66813,0.336 -0.66813,0.75l0,10.5c0,0.414 0.30021,0.75 0.66813,0.75l12.02632,0c0.36792,0 0.66813,-0.336 0.66813,-0.75l0,-10.5c0,-0.414 -0.30021,-0.75 -0.66813,-0.75l-12.02632,0z" fill="currentColor" />
  <path d="m11.35526,10.5c-0.414,0 -0.75,-0.336 -0.75,-0.75l0,-3.75c0,-2.481 -2.019,-4.5 -4.5,-4.5s-4.5,2.019 -4.5,4.5l0,3.75c0,0.414 -0.336,0.75 -0.75,0.75s-0.75,-0.336 -0.75,-0.75l0,-3.75c0,-3.309 2.691,-6 6,-6s6,2.691 6,6l0,3.75c0,0.414 -0.336,0.75 -0.75,0.75z" fill="currentColor" />
  <path d="m15.7193,17c-1.103,0 -2,-0.897 -2,-2s0.897,-2 2,-2s2,0.897 2,2s-0.897,2 -2,2zm0,-2.5c-0.275,0 -0.5,0.224 -0.5,0.5s0.225,0.5 0.5,0.5s0.5,-0.224 0.5,-0.5s-0.225,-0.5 -0.5,-0.5z" fill="currentColor" />
  <path d="m15.7193,20c-0.414,0 -0.75,-0.336 -0.75,-0.75l0,-2.75c0,-0.414 0.336,-0.75 0.75,-0.75s0.75,0.336 0.75,0.75l0,2.75c0,0.414 -0.336,0.75 -0.75,0.75z" fill="currentColor" />
</svg>