<svg width="24" height="24" xmlns="http://www.w3.org/2000/svg">
  <path d="m18.75,24l-13.5,0c-1.24,0 -2.25,-1.009 -2.25,-2.25l0,-10.5c0,-1.241 1.01,-2.25 2.25,-2.25l13.5,0c1.24,0 2.25,1.009 2.25,2.25l0,10.5c0,1.241 -1.01,2.25 -2.25,2.25zm-13.5,-13.5c-0.413,0 -0.75,0.336 -0.75,0.75l0,10.5c0,0.414 0.337,0.75 0.75,0.75l13.5,0c0.413,0 0.75,-0.336 0.75,-0.75l0,-10.5c0,-0.414 -0.337,-0.75 -0.75,-0.75l-13.5,0z" fill="currentColor" />
  <path d="m17.25,10.5c-0.414,0 -0.75,-0.336 -0.75,-0.75l0,-3.75c0,-2.481 -2.019,-4.5 -4.5,-4.5s-4.5,2.019 -4.5,4.5l0,3.75c0,0.414 -0.336,0.75 -0.75,0.75s-0.75,-0.336 -0.75,-0.75l0,-3.75c0,-3.309 2.691,-6 6,-6s6,2.691 6,6l0,3.75c0,0.414 -0.336,0.75 -0.75,0.75z" fill="currentColor" />
  <path d="m12,17c-1.103,0 -2,-0.897 -2,-2s0.897,-2 2,-2s2,0.897 2,2s-0.897,2 -2,2zm0,-2.5c-0.275,0 -0.5,0.224 -0.5,0.5s0.225,0.5 0.5,0.5s0.5,-0.224 0.5,-0.5s-0.225,-0.5 -0.5,-0.5z" fill="currentColor" />
  <path d="m12,20c-0.414,0 -0.75,-0.336 -0.75,-0.75l0,-2.75c0,-0.414 0.336,-0.75 0.75,-0.75s0.75,0.336 0.75,0.75l0,2.75c0,0.414 -0.336,0.75 -0.75,0.75z" fill="currentColor" />
</svg>