<svg width="20" height="20" viewBox="0 0 20 20" fill="none" xmlns="http://www.w3.org/2000/svg">
<path fill-rule="evenodd" clip-rule="evenodd" d="M7.6569 5.62329C7.03439 7.02356 5.63123 8 4 8C1.79086 8 0 6.20914 0 4C0 1.79086 1.79086 0 4 0C6.09134 0 7.80782 1.60496 7.98493 3.65037L12.3431 4.37673C12.9656 2.97645 14.3688 2 16 2C18.2091 2 20 3.79086 20 6C20 8.20914 18.2091 10 16 10C14.9749 10 14.04 9.61443 13.3321 8.9804L7.77815 12.6831C7.88518 12.9902 7.95583 13.3143 7.98493 13.6504L12.3431 14.3767C12.9656 12.9764 14.3688 12 16 12C18.2091 12 20 13.7909 20 16C20 18.2091 18.2091 20 16 20C13.9087 20 12.1922 18.3951 12.0151 16.3497L7.6569 15.6233C7.03439 17.0236 5.63123 18 4 18C1.79086 18 0 16.2091 0 14C0 11.7909 1.79086 10 4 10C5.02504 10 5.96002 10.3856 6.66784 11.0196L12.2218 7.3169C12.1148 7.00981 12.0442 6.68568 12.0151 6.34965L7.6569 5.62329ZM6 4C6 5.10457 5.10457 6 4 6C2.89543 6 2 5.10457 2 4C2 2.89543 2.89543 2 4 2C5.10457 2 6 2.89543 6 4ZM16 8C17.1046 8 18 7.10457 18 6C18 4.89543 17.1046 4 16 4C14.8954 4 14 4.89543 14 6C14 7.10457 14.8954 8 16 8ZM6 14C6 15.1046 5.10457 16 4 16C2.89543 16 2 15.1046 2 14C2 12.8954 2.89543 12 4 12C5.10457 12 6 12.8954 6 14ZM16 18C17.1046 18 18 17.1046 18 16C18 14.8954 17.1046 14 16 14C14.8954 14 14 14.8954 14 16C14 17.1046 14.8954 18 16 18Z" fill="currentColor"/>
</svg>
