<svg width="32" height="20" viewBox="0 5 32 20" fill="none" xmlns="http://www.w3.org/2000/svg">
<path d="M18 13V8C18 7.73478 18.1054 7.48043 18.2929 7.29289C18.4804 7.10536 18.7348 7 19 7C19.2652 7 19.5196 7.10536 19.7071 7.29289C19.8946 7.48043 20 7.73478 20 8V13C20.5304 13 21.0391 13.2107 21.4142 13.5858C21.7893 13.9609 22 14.4696 22 15V18.5C21.9999 19.7247 21.5911 20.9144 20.8385 21.8805C20.0859 22.8467 19.0324 23.5342 17.845 23.834C17.9584 24.0628 18.0114 24.3167 17.9992 24.5717C17.987 24.8267 17.9099 25.0744 17.7753 25.2913C17.6406 25.5082 17.4528 25.6871 17.2296 25.8111C17.0064 25.9352 16.7553 26.0002 16.5 26H15.5C15.2447 26.0002 14.9936 25.9352 14.7704 25.8111C14.5472 25.6871 14.3594 25.5082 14.2247 25.2913C14.0901 25.0744 14.013 24.8267 14.0008 24.5717C13.9886 24.3167 14.0416 24.0628 14.155 23.834C12.9676 23.5342 11.9141 22.8467 11.1615 21.8805C10.4089 20.9144 10.0001 19.7247 10 18.5V15C10 14.4696 10.2107 13.9609 10.5858 13.5858C10.9609 13.2107 11.4696 13 12 13V8C12 7.73478 12.1054 7.48043 12.2929 7.29289C12.4804 7.10536 12.7348 7 13 7C13.2652 7 13.5196 7.10536 13.7071 7.29289C13.8946 7.48043 14 7.73478 14 8V13H18Z" fill="currentColor"/>
</svg>
