<svg width="24" height="25" viewBox="0 0 24 25" fill="none" xmlns="http://www.w3.org/2000/svg">
<path d="M11.9999 12.8115L9.67454 15.5795C10.3612 16.5407 10.7088 17.703 10.6624 18.8833C10.6161 20.0637 10.1785 21.1951 9.41854 22.0995C8.50834 23.1815 7.20609 23.8582 5.79753 23.9812C4.38897 24.1042 2.98915 23.6634 1.90521 22.7555C1.36875 22.3064 0.926138 21.7558 0.602702 21.1354C0.279265 20.515 0.0813554 19.8368 0.0202999 19.1398C-0.0407557 18.4428 0.0362414 17.7406 0.246884 17.0734C0.457528 16.4062 0.797681 15.7871 1.24788 15.2515C2.0087 14.3467 3.04825 13.72 4.20357 13.4695C5.35889 13.219 6.56467 13.359 7.63188 13.8675L10.2585 10.7395L3.07454 2.18885C2.96202 2.05495 2.87699 1.90019 2.82433 1.7334C2.77166 1.56662 2.7524 1.39109 2.76763 1.21685C2.78286 1.04261 2.83229 0.873089 2.9131 0.717973C2.9939 0.562856 3.10449 0.42519 3.23854 0.31285C3.37266 0.200246 3.52764 0.115165 3.69464 0.0624652C3.86165 0.0097655 4.03739 -0.00952042 4.21185 0.00570882C4.3863 0.0209381 4.55605 0.0703841 4.71139 0.151223C4.86674 0.232062 5.00463 0.342711 5.11721 0.47685L11.9999 8.66885L18.8812 0.47685C18.9938 0.342517 19.1318 0.231703 19.2872 0.150745C19.4427 0.0697879 19.6126 0.0202768 19.7872 0.00504451C19.9618 -0.0101878 20.1377 0.00915768 20.3049 0.0619742C20.472 0.114791 20.6271 0.200042 20.7612 0.31285C20.8953 0.42519 21.0059 0.562856 21.0867 0.717973C21.1675 0.873089 21.2169 1.04261 21.2321 1.21685C21.2474 1.39109 21.2281 1.56662 21.1754 1.7334C21.1228 1.90019 21.0377 2.05495 20.9252 2.18885L13.7399 10.7395L16.3665 13.8662C17.4338 13.3577 18.6395 13.2177 19.7948 13.4682C20.9502 13.7186 21.9897 14.3454 22.7505 15.2502C23.2007 15.7858 23.5409 16.4049 23.7515 17.0721C23.9622 17.7393 24.0392 18.4415 23.9781 19.1385C23.9171 19.8355 23.7192 20.5136 23.3957 21.134C23.0723 21.7545 22.6297 22.305 22.0932 22.7542C21.0093 23.6621 19.6094 24.1029 18.2009 23.9799C16.7923 23.8569 15.4901 23.1802 14.5799 22.0982C13.8199 21.1938 13.3823 20.0624 13.336 18.882C13.2896 17.7016 13.6372 16.5394 14.3239 15.5782L11.9999 12.8115ZM3.61988 20.7142C4.16456 21.1353 4.85102 21.3295 5.53559 21.256C6.22017 21.1825 6.84979 20.8471 7.29269 20.32C7.73559 19.7928 7.95744 19.1148 7.91181 18.4278C7.86618 17.7408 7.55661 17.0981 7.04788 16.6342C6.50587 16.18 5.80581 15.9595 5.10137 16.021C4.39692 16.0825 3.74566 16.421 3.29054 16.9622C2.34388 18.0889 2.49054 19.7689 3.61988 20.7142ZM20.3799 20.7142C20.648 20.4895 20.8692 20.2142 21.0308 19.9039C21.1924 19.5937 21.2912 19.2547 21.3217 18.9062C21.3522 18.5577 21.3136 18.2066 21.2083 17.8731C21.103 17.5395 20.9329 17.23 20.7079 16.9622C20.2528 16.4214 19.6018 16.0832 18.8977 16.0217C18.1936 15.9602 17.4938 16.1805 16.9519 16.6342C16.6837 16.8588 16.4624 17.134 16.3007 17.4442C16.1389 17.7544 16.0399 18.0934 16.0093 18.4419C15.9788 18.7904 16.0172 19.1415 16.1224 19.4751C16.2276 19.8087 16.3976 20.1183 16.6225 20.3862C17.5692 21.5129 19.2519 21.6595 20.3799 20.7142Z" fill="#FF8B5C"/>
</svg>
