<svg width="20" height="20" viewBox="0 0 20 20" fill="none" xmlns="http://www.w3.org/2000/svg">
<path d="M20 8.163C19.674 8.34626 19.4027 8.61303 19.2139 8.93588C19.0252 9.25873 18.9258 9.62602 18.926 10C18.926 10.789 19.359 11.476 20 11.837L19.283 14.243C18.8954 14.1763 18.497 14.2196 18.1327 14.3678C17.7685 14.516 17.453 14.7633 17.2222 15.0816C16.9913 15.3999 16.8542 15.7766 16.8264 16.1688C16.7986 16.5611 16.8813 16.9533 17.065 17.301L15.003 18.903C14.73 18.6792 14.4051 18.5277 14.0582 18.4624C13.7113 18.3971 13.3535 18.4202 13.0179 18.5295C12.6822 18.6387 12.3794 18.8307 12.1374 19.0877C11.8954 19.3447 11.7219 19.6584 11.633 20L8.343 19.992C8.25308 19.652 8.07938 19.34 7.83778 19.0845C7.59618 18.829 7.29439 18.6381 6.95999 18.5292C6.62559 18.4204 6.26924 18.3972 5.92353 18.4616C5.57782 18.526 5.25377 18.676 4.981 18.898L2.921 17.283C3.09957 16.9367 3.17855 16.5477 3.14914 16.1592C3.11973 15.7708 2.98309 15.3981 2.75442 15.0826C2.52576 14.7672 2.21404 14.5214 1.85398 14.3727C1.49391 14.2239 1.09962 14.178 0.715 14.24L0 11.825C0.319949 11.6398 0.585514 11.3737 0.770003 11.0533C0.954492 10.733 1.0514 10.3697 1.051 10C1.051 9.22 0.63 8.54 0 8.175L0.715 5.76C1.0997 5.82225 1.49412 5.77648 1.85435 5.6278C2.21457 5.47912 2.52645 5.23336 2.75525 4.9179C2.98405 4.60243 3.12078 4.22964 3.15022 3.84106C3.17966 3.45247 3.10066 3.06334 2.922 2.717L4.98 1.102C5.25277 1.32395 5.57682 1.47399 5.92253 1.53841C6.26824 1.60283 6.62459 1.57957 6.95899 1.47075C7.29339 1.36194 7.59518 1.17104 7.83678 0.915511C8.07838 0.659981 8.25208 0.347971 8.342 0.008L11.634 0C11.7229 0.341608 11.8964 0.655348 12.1384 0.912329C12.3804 1.16931 12.6832 1.36127 13.0189 1.47053C13.3545 1.5798 13.7123 1.60285 14.0592 1.53758C14.4061 1.4723 14.731 1.32079 15.004 1.097L17.064 2.7C16.8803 3.04769 16.7976 3.43989 16.8254 3.83215C16.8532 4.22442 16.9903 4.60106 17.2212 4.91938C17.452 5.23771 17.7675 5.485 18.1317 5.63322C18.496 5.78144 18.8944 5.82467 19.282 5.758L20 8.162V8.163ZM14.823 3.68C14.823 3.617 14.825 3.555 14.828 3.492L14.748 3.43C13.9691 3.64219 13.1449 3.61989 12.3786 3.36588C11.6123 3.11187 10.9379 2.63744 10.44 2.002L9.536 2.004C9.03992 2.63674 8.36874 3.10966 7.60597 3.36392C6.8432 3.61817 6.02251 3.64255 5.246 3.434L5.151 3.51C5.18866 4.41268 4.92769 5.30259 4.4085 6.04197C3.8893 6.78135 3.14085 7.32895 2.279 7.6C2.78181 8.29879 3.05191 9.13811 3.051 9.999C3.051 10.881 2.771 11.714 2.279 12.399C3.14085 12.67 3.8893 13.2176 4.4085 13.957C4.92769 14.6964 5.18866 15.5863 5.151 16.489L5.247 16.564C6.02339 16.3562 6.84371 16.3809 7.60617 16.6351C8.36862 16.8894 9.03966 17.3619 9.536 17.994L10.44 17.996C10.9376 17.3604 11.6118 16.8859 12.3779 16.6319C13.1441 16.3778 13.9682 16.3556 14.747 16.568L14.827 16.506C14.7858 15.6005 15.0452 14.7068 15.5649 13.9642C16.0845 13.2215 16.8352 12.6716 17.7 12.4C17.1968 11.701 16.9263 10.8613 16.927 10C16.927 9.118 17.208 8.284 17.7 7.6C16.866 7.33781 16.1374 6.81638 15.6201 6.11155C15.1029 5.40672 14.824 4.55526 14.824 3.681L14.823 3.68ZM10 14C8.93913 14 7.92172 13.5786 7.17157 12.8284C6.42143 12.0783 6 11.0609 6 10C6 8.93913 6.42143 7.92172 7.17157 7.17157C7.92172 6.42143 8.93913 6 10 6C11.0609 6 12.0783 6.42143 12.8284 7.17157C13.5786 7.92172 14 8.93913 14 10C14 11.0609 13.5786 12.0783 12.8284 12.8284C12.0783 13.5786 11.0609 14 10 14ZM10 12C10.5304 12 11.0391 11.7893 11.4142 11.4142C11.7893 11.0391 12 10.5304 12 10C12 9.46957 11.7893 8.96086 11.4142 8.58579C11.0391 8.21071 10.5304 8 10 8C9.46957 8 8.96086 8.21071 8.58579 8.58579C8.21071 8.96086 8 9.46957 8 10C8 10.5304 8.21071 11.0391 8.58579 11.4142C8.96086 11.7893 9.46957 12 10 12Z" fill="currentColor"/>
</svg>
