<svg width="18" height="18" viewBox="0 0 18 18" fill="none" xmlns="http://www.w3.org/2000/svg">
<path d="M0.694333 17.3063C-1.21567 15.3943 0.952333 10.1263 5.53933 5.53935C10.1263 0.952348 15.3943 -1.21665 17.3063 0.694348C19.2163 2.60635 17.0483 7.87435 12.4613 12.4613C7.87433 17.0483 2.60633 19.2173 0.694333 17.3063ZM2.08033 15.9203C2.89533 16.7363 7.18233 14.9703 11.0773 11.0753C14.9723 7.18035 16.7373 2.89335 15.9223 2.07835C15.1073 1.26235 10.8203 3.02835 6.92533 6.92335C3.03033 10.8183 1.26533 15.1053 2.08033 15.9203ZM5.54033 12.4603C0.952333 7.87435 -1.21667 2.60635 0.694333 0.694348C2.60633 -1.21565 7.87433 0.952348 12.4613 5.53935C17.0483 10.1263 19.2173 15.3943 17.3063 17.3063C15.3943 19.2163 10.1263 17.0483 5.53933 12.4613L5.54033 12.4603ZM6.92533 11.0753C10.8203 14.9703 15.1073 16.7353 15.9223 15.9203C16.7383 15.1053 14.9723 10.8183 11.0773 6.92335C7.18233 3.02835 2.89533 1.26335 2.08033 2.07835C1.26433 2.89335 3.03033 7.18035 6.92533 11.0753ZM9.00033 11.0003C8.4699 11.0003 7.96119 10.7896 7.58612 10.4146C7.21105 10.0395 7.00033 9.53078 7.00033 9.00035C7.00033 8.46992 7.21105 7.96121 7.58612 7.58613C7.96119 7.21106 8.4699 7.00035 9.00033 7.00035C9.53077 7.00035 10.0395 7.21106 10.4145 7.58613C10.7896 7.96121 11.0003 8.46992 11.0003 9.00035C11.0003 9.53078 10.7896 10.0395 10.4145 10.4146C10.0395 10.7896 9.53077 11.0003 9.00033 11.0003Z" fill="currentColor"/>
</svg>
